<svg width="131" height="24" viewBox="0 0 131 24" fill="none" xmlns="http://www.w3.org/2000/svg">
<path d="M32.0322 18V10.1123H33.506V11.3961H33.6036C33.7679 10.9613 34.0366 10.6224 34.4098 10.3793C34.7829 10.1328 35.2297 10.0096 35.7501 10.0096C36.2773 10.0096 36.7189 10.1328 37.075 10.3793C37.4344 10.6258 37.6998 10.9647 37.8709 11.3961H37.9531C38.1414 10.975 38.4409 10.6395 38.8518 10.3896C39.2626 10.1363 39.7521 10.0096 40.3204 10.0096C41.0359 10.0096 41.6196 10.2338 42.0715 10.6823C42.5269 11.1308 42.7545 11.8069 42.7545 12.7107V18H41.2191V12.8545C41.2191 12.3204 41.0736 11.9336 40.7826 11.6939C40.4916 11.4543 40.1441 11.3345 39.7401 11.3345C39.2403 11.3345 38.8518 11.4885 38.5745 11.7967C38.2972 12.1013 38.1585 12.4933 38.1585 12.9726V18H36.6282V12.7569C36.6282 12.329 36.4947 11.9849 36.2277 11.7248C35.9606 11.4646 35.6131 11.3345 35.1852 11.3345C34.8942 11.3345 34.6255 11.4115 34.379 11.5656C34.1359 11.7162 33.9391 11.9267 33.7884 12.1972C33.6412 12.4677 33.5676 12.7809 33.5676 13.1369V18H32.0322ZM44.416 20.9579C44.1867 20.9579 43.9778 20.9391 43.7895 20.9014C43.6012 20.8672 43.4609 20.8295 43.3684 20.7884L43.7382 19.5303C44.0189 19.6056 44.2688 19.6381 44.4879 19.6279C44.707 19.6176 44.9004 19.5354 45.0682 19.3814C45.2394 19.2273 45.39 18.9757 45.5201 18.6265L45.7101 18.1027L42.8241 10.1123H44.4674L46.465 16.2335H46.5471L48.5447 10.1123H50.1931L46.9426 19.0527C46.7919 19.4635 46.6002 19.811 46.3674 20.0952C46.1346 20.3827 45.8573 20.5984 45.5355 20.7422C45.2137 20.886 44.8405 20.9579 44.416 20.9579ZM56.976 10.1123V11.3448H52.6676V10.1123H56.976ZM53.823 8.22254H55.3584V15.684C55.3584 15.9819 55.4029 16.2061 55.4919 16.3567C55.5809 16.5039 55.6956 16.6049 55.836 16.6597C55.9798 16.7111 56.1355 16.7367 56.3033 16.7367C56.4265 16.7367 56.5344 16.7282 56.6268 16.7111C56.7192 16.6939 56.7911 16.6802 56.8425 16.67L57.1198 17.9384C57.0308 17.9726 56.9041 18.0068 56.7398 18.0411C56.5755 18.0787 56.37 18.0993 56.1236 18.1027C55.7196 18.1096 55.343 18.0377 54.9938 17.887C54.6446 17.7364 54.3622 17.5036 54.1465 17.1886C53.9308 16.8737 53.823 16.4783 53.823 16.0024V8.22254ZM57.5899 18V10.1123H59.074V11.3653H59.1562C59.2999 10.9408 59.5533 10.607 59.9162 10.3639C60.2825 10.1174 60.6967 9.99419 61.1589 9.99419C61.2548 9.99419 61.3677 9.99761 61.4978 10.0045C61.6313 10.0113 61.7358 10.0199 61.8111 10.0301V11.4988C61.7495 11.4817 61.6399 11.4629 61.4824 11.4423C61.3249 11.4184 61.1675 11.4064 61.01 11.4064C60.6471 11.4064 60.3236 11.4834 60.0394 11.6375C59.7587 11.7881 59.5362 11.9986 59.3718 12.2691C59.2075 12.5361 59.1254 12.8408 59.1254 13.1832V18H57.5899ZM64.2801 18.1746C63.7803 18.1746 63.3284 18.0822 62.9244 17.8973C62.5204 17.709 62.2003 17.4368 61.9641 17.0808C61.7313 16.7248 61.6149 16.2883 61.6149 15.7713C61.6149 15.3263 61.7005 14.9599 61.8717 14.6724C62.0428 14.3848 62.2739 14.1571 62.5649 13.9894C62.8559 13.8216 63.1811 13.695 63.5406 13.6094C63.9001 13.5238 64.2664 13.4588 64.6396 13.4142C65.112 13.3595 65.4954 13.315 65.7898 13.2807C66.0843 13.2431 66.2982 13.1832 66.4317 13.101C66.5653 13.0188 66.632 12.8853 66.632 12.7005V12.6645C66.632 12.216 66.5053 11.8685 66.252 11.6221C66.0021 11.3756 65.6289 11.2523 65.1325 11.2523C64.6156 11.2523 64.2082 11.367 63.9104 11.5964C63.6159 11.8223 63.4122 12.074 63.2993 12.3513L61.8563 12.0226C62.0274 11.5433 62.2774 11.1565 62.606 10.862C62.9381 10.5642 63.3198 10.3485 63.7512 10.215C64.1825 10.0781 64.6361 10.0096 65.112 10.0096C65.427 10.0096 65.7607 10.0473 66.1134 10.1226C66.4694 10.1945 66.8015 10.328 67.1096 10.5231C67.4211 10.7183 67.6762 10.9973 67.8747 11.3602C68.0733 11.7196 68.1726 12.1869 68.1726 12.7621V18H66.6731V16.9216H66.6115C66.5122 17.1202 66.3633 17.3153 66.1647 17.507C65.9662 17.6987 65.7111 17.8579 65.3996 17.9846C65.088 18.1113 64.7149 18.1746 64.2801 18.1746ZM64.6139 16.9421C65.0384 16.9421 65.4013 16.8583 65.7025 16.6905C66.0072 16.5228 66.2383 16.3037 66.3958 16.0332C66.5567 15.7593 66.6372 15.4666 66.6372 15.1551V14.1383C66.5824 14.1931 66.4763 14.2444 66.3188 14.2924C66.1647 14.3369 65.9884 14.3762 65.7898 14.4105C65.5913 14.4413 65.3979 14.4704 65.2096 14.4978C65.0213 14.5217 64.8638 14.5423 64.7371 14.5594C64.4393 14.5971 64.1671 14.6604 63.9206 14.7494C63.6776 14.8384 63.4824 14.9668 63.3352 15.1345C63.1914 15.2989 63.1195 15.518 63.1195 15.7919C63.1195 16.1719 63.2599 16.4594 63.5406 16.6546C63.8213 16.8463 64.1791 16.9421 64.6139 16.9421ZM75.5984 10.1123L72.7381 18H71.0948L68.2293 10.1123H69.8777L71.8753 16.1821H71.9575L73.95 10.1123H75.5984ZM79.088 18.1592C78.3109 18.1592 77.6416 17.9932 77.0801 17.6611C76.5221 17.3256 76.0908 16.8548 75.7861 16.2489C75.4848 15.6395 75.3342 14.9257 75.3342 14.1075C75.3342 13.2996 75.4848 12.5875 75.7861 11.9712C76.0908 11.355 76.5153 10.874 77.0596 10.5283C77.6074 10.1825 78.2475 10.0096 78.9802 10.0096C79.4252 10.0096 79.8566 10.0832 80.2742 10.2304C80.6919 10.3776 81.0668 10.6087 81.3989 10.9237C81.7309 11.2386 81.9928 11.6477 82.1846 12.151C82.3763 12.6508 82.4721 13.2585 82.4721 13.974V14.5183H76.202V13.368H80.9675C80.9675 12.9641 80.8853 12.6063 80.721 12.2948C80.5567 11.9798 80.3256 11.7316 80.0278 11.5502C79.7333 11.3687 79.3876 11.278 78.9904 11.278C78.5591 11.278 78.1825 11.3841 77.8607 11.5964C77.5423 11.8052 77.2958 12.0791 77.1212 12.418C76.95 12.7535 76.8645 13.1181 76.8645 13.5118V14.4105C76.8645 14.9377 76.9569 15.3862 77.1418 15.7559C77.3301 16.1256 77.5919 16.4081 77.9275 16.6032C78.263 16.7949 78.6549 16.8908 79.1034 16.8908C79.3944 16.8908 79.6597 16.8497 79.8994 16.7675C80.139 16.682 80.3461 16.5553 80.5207 16.3875C80.6953 16.2198 80.8289 16.0127 80.9213 15.7662L82.3746 16.0281C82.2582 16.456 82.0493 16.8309 81.7481 17.1527C81.4502 17.4711 81.0753 17.7193 80.6234 17.8973C80.175 18.0719 79.6632 18.1592 79.088 18.1592ZM84.6266 7.48307V18H83.0912V7.48307H84.6266ZM88.3502 10.1123H89.8856V18.5135C89.8856 19.0407 89.7897 19.4858 89.598 19.8487C89.4097 20.2116 89.129 20.4872 88.7558 20.6755C88.3861 20.8637 87.9291 20.9579 87.3847 20.9579C87.33 20.9579 87.2786 20.9579 87.2307 20.9579C87.1793 20.9579 87.1263 20.9562 87.0715 20.9528V19.633C87.1194 19.633 87.1622 19.633 87.1999 19.633C87.2341 19.633 87.2735 19.633 87.318 19.633C87.6809 19.633 87.9428 19.5354 88.1037 19.3403C88.268 19.1486 88.3502 18.8696 88.3502 18.5033V10.1123ZM89.1102 8.89525C88.8431 8.89525 88.6138 8.80624 88.422 8.62822C88.2338 8.44678 88.1396 8.2311 88.1396 7.98118C88.1396 7.72784 88.2338 7.51217 88.422 7.33414C88.6138 7.1527 88.8431 7.06198 89.1102 7.06198C89.3772 7.06198 89.6049 7.1527 89.7932 7.33414C89.9849 7.51217 90.0807 7.72784 90.0807 7.98118C90.0807 8.2311 89.9849 8.44678 89.7932 8.62822C89.6049 8.80624 89.3772 8.89525 89.1102 8.89525ZM94.1892 18.1592C93.4497 18.1592 92.8044 17.9897 92.2532 17.6508C91.702 17.3119 91.2741 16.8377 90.9694 16.2283C90.6647 15.619 90.5123 14.9069 90.5123 14.0921C90.5123 13.2739 90.6647 12.5584 90.9694 11.9456C91.2741 11.3328 91.702 10.8569 92.2532 10.518C92.8044 10.1791 93.4497 10.0096 94.1892 10.0096C94.9286 10.0096 95.574 10.1791 96.1251 10.518C96.6763 10.8569 97.1043 11.3328 97.4089 11.9456C97.7136 12.5584 97.866 13.2739 97.866 14.0921C97.866 14.9069 97.7136 15.619 97.4089 16.2283C97.1043 16.8377 96.6763 17.3119 96.1251 17.6508C95.574 17.9897 94.9286 18.1592 94.1892 18.1592ZM94.1943 16.8703C94.6736 16.8703 95.0707 16.7436 95.3857 16.4902C95.7006 16.2369 95.9334 15.8997 96.0841 15.4786C96.2381 15.0575 96.3151 14.5936 96.3151 14.087C96.3151 13.5837 96.2381 13.1215 96.0841 12.7005C95.9334 12.2759 95.7006 11.9353 95.3857 11.6785C95.0707 11.4218 94.6736 11.2934 94.1943 11.2934C93.7116 11.2934 93.311 11.4218 92.9927 11.6785C92.6777 11.9353 92.4432 12.2759 92.2891 12.7005C92.1385 13.1215 92.0632 13.5837 92.0632 14.087C92.0632 14.5936 92.1385 15.0575 92.2891 15.4786C92.4432 15.8997 92.6777 16.2369 92.9927 16.4902C93.311 16.7436 93.7116 16.8703 94.1943 16.8703ZM103.492 14.7289V10.1123H105.032V18H103.523V16.634H103.441C103.259 17.0551 102.968 17.406 102.568 17.6868C102.17 17.9641 101.676 18.1027 101.083 18.1027C100.577 18.1027 100.128 17.9914 99.738 17.7689C99.3512 17.543 99.0465 17.2092 98.824 16.7675C98.6049 16.3259 98.4953 15.7799 98.4953 15.1294V10.1123H100.031V14.9445C100.031 15.482 100.18 15.91 100.477 16.2283C100.775 16.5467 101.162 16.7059 101.638 16.7059C101.926 16.7059 102.211 16.634 102.496 16.4902C102.783 16.3465 103.021 16.1291 103.209 15.8381C103.401 15.5471 103.495 15.1773 103.492 14.7289ZM106.011 18V10.1123H107.495V11.3653H107.577C107.721 10.9408 107.974 10.607 108.337 10.3639C108.704 10.1174 109.118 9.99419 109.58 9.99419C109.676 9.99419 109.789 9.99761 109.919 10.0045C110.052 10.0113 110.157 10.0199 110.232 10.0301V11.4988C110.17 11.4817 110.061 11.4629 109.903 11.4423C109.746 11.4184 109.588 11.4064 109.431 11.4064C109.068 11.4064 108.745 11.4834 108.46 11.6375C108.18 11.7881 107.957 11.9986 107.793 12.2691C107.629 12.5361 107.546 12.8408 107.546 13.1832V18H106.011ZM112.012 13.3167V18H110.476V10.1123H111.95V11.3961H112.048C112.229 10.9784 112.513 10.6429 112.9 10.3896C113.29 10.1363 113.782 10.0096 114.374 10.0096C114.911 10.0096 115.382 10.1226 115.786 10.3485C116.19 10.571 116.503 10.9031 116.726 11.3448C116.948 11.7864 117.06 12.3324 117.06 12.9829V18H115.524V13.1678C115.524 12.596 115.375 12.1493 115.077 11.8275C114.78 11.5022 114.37 11.3396 113.85 11.3396C113.494 11.3396 113.177 11.4166 112.9 11.5707C112.626 11.7248 112.409 11.9507 112.248 12.2486C112.09 12.543 112.012 12.899 112.012 13.3167ZM120.33 18.1746C119.83 18.1746 119.378 18.0822 118.974 17.8973C118.57 17.709 118.25 17.4368 118.014 17.0808C117.781 16.7248 117.665 16.2883 117.665 15.7713C117.665 15.3263 117.75 14.9599 117.921 14.6724C118.092 14.3848 118.324 14.1571 118.615 13.9894C118.906 13.8216 119.231 13.695 119.59 13.6094C119.95 13.5238 120.316 13.4588 120.689 13.4142C121.162 13.3595 121.545 13.315 121.839 13.2807C122.134 13.2431 122.348 13.1832 122.481 13.101C122.615 13.0188 122.682 12.8853 122.682 12.7005V12.6645C122.682 12.216 122.555 11.8685 122.302 11.6221C122.052 11.3756 121.679 11.2523 121.182 11.2523C120.665 11.2523 120.258 11.367 119.96 11.5964C119.666 11.8223 119.462 12.074 119.349 12.3513L117.906 12.0226C118.077 11.5433 118.327 11.1565 118.656 10.862C118.988 10.5642 119.369 10.3485 119.801 10.215C120.232 10.0781 120.686 10.0096 121.162 10.0096C121.477 10.0096 121.81 10.0473 122.163 10.1226C122.519 10.1945 122.851 10.328 123.159 10.5231C123.471 10.7183 123.726 10.9973 123.924 11.3602C124.123 11.7196 124.222 12.1869 124.222 12.7621V18H122.723V16.9216H122.661C122.562 17.1202 122.413 17.3153 122.214 17.507C122.016 17.6987 121.761 17.8579 121.449 17.9846C121.138 18.1113 120.765 18.1746 120.33 18.1746ZM120.664 16.9421C121.088 16.9421 121.451 16.8583 121.752 16.6905C122.057 16.5228 122.288 16.3037 122.445 16.0332C122.606 15.7593 122.687 15.4666 122.687 15.1551V14.1383C122.632 14.1931 122.526 14.2444 122.368 14.2924C122.214 14.3369 122.038 14.3762 121.839 14.4105C121.641 14.4413 121.448 14.4704 121.259 14.4978C121.071 14.5217 120.913 14.5423 120.787 14.5594C120.489 14.5971 120.217 14.6604 119.97 14.7494C119.727 14.8384 119.532 14.9668 119.385 15.1345C119.241 15.2989 119.169 15.518 119.169 15.7919C119.169 16.1719 119.31 16.4594 119.59 16.6546C119.871 16.8463 120.229 16.9421 120.664 16.9421ZM126.718 7.48307V18H125.183V7.48307H126.718ZM128.711 18.0976C128.43 18.0976 128.189 17.9983 127.987 17.7997C127.785 17.5977 127.684 17.3547 127.684 17.0705C127.684 16.7898 127.785 16.5502 127.987 16.3516C128.189 16.1496 128.43 16.0486 128.711 16.0486C128.992 16.0486 129.233 16.1496 129.435 16.3516C129.637 16.5502 129.738 16.7898 129.738 17.0705C129.738 17.2588 129.69 17.4317 129.594 17.5892C129.502 17.7432 129.379 17.8665 129.224 17.9589C129.07 18.0514 128.899 18.0976 128.711 18.0976Z" fill="white"/>
<path fill-rule="evenodd" clip-rule="evenodd" d="M19.8649 17.2C19.7357 17.0799 19.6376 16.9553 19.6044 16.84C19.4739 16.383 19.646 15.0548 19.9048 14.6401C20.1628 14.2239 19.877 12.975 19.7926 12.7683C19.7058 12.5604 19.6767 12.2906 19.3805 12.3724C19.0826 12.4558 18.4132 12.4247 17.8078 12.3002C17.2008 12.1768 16.6723 11.5921 16.5514 10.9328C16.416 10.1937 16.416 9.47567 16.5888 9.02547C16.782 8.5194 17.2577 8.32783 17.6932 8.08917C17.8938 7.97981 18.8644 7.82496 18.8279 7.358C18.6023 6.92776 16.5418 7.41707 16.4592 6.74856C16.3756 6.07886 16.3461 5.74281 16.6075 5.20401C16.8817 4.64207 16.5664 4.7171 16.4907 4.03583C16.4804 3.93884 16.6952 3.6882 16.7122 3.6C17.4231 4.0043 18.0908 4.48762 18.6899 5.06313C20.5667 6.8667 21.6 9.26454 21.6 11.8152C21.6 13.7669 20.9905 15.6255 19.8649 17.2ZM15.4437 16.8971C15.034 17.5476 15.1325 18.0268 14.1978 18.5241C13.6772 18.8014 13.3068 18.88 13.0314 19.6248C12.7548 20.368 12.2962 20.3418 11.1513 20.9456C10.0047 21.5509 9.54928 20.9456 9.45589 20.4813C9.36289 20.017 9.64545 18.9203 9.64545 18.9203C9.64545 18.9203 9.75752 18.5927 8.94521 18.2227C6.89098 17.2872 8.66344 14.0029 8.66344 14.0029C8.19926 13.4596 7.02053 12.394 5.37484 12.045C3.80148 11.7121 3.3528 10.7887 2.8 9.867C3.20457 8.16055 4.05464 6.59235 5.30967 5.31877C7.10479 3.49786 9.49086 2.4 12.0315 2.4C12.0315 2.4 12.8883 2.4 13.6971 2.6124C12.9575 3.42653 12.1301 4.24952 11.5153 4.47643C10.4085 4.88752 9.89543 5.56099 9.89066 6.27839C9.88827 6.64999 10.6577 7.32345 10.6577 8.17547C10.6577 9.62356 9.59498 9.65702 9.47099 9.04682C9.19121 7.66281 8.12097 8.0203 6.83931 8.15894C5.55567 8.29879 4.77793 9.81017 5.60216 10.4147C6.42799 11.0193 6.38547 10.2237 6.703 9.99677C7.01894 9.76946 7.24229 9.67959 7.48233 9.99677C7.72038 10.314 8.23662 10.4865 8.18694 11.1374C8.14363 11.7879 8.00453 12.3448 8.87685 12.3448C9.74799 12.3448 9.77819 12.5391 10.331 12.8176C10.8782 13.0965 11.3965 13.0441 11.8531 13.1376C12.3117 13.2299 12.9126 14.1279 12.9126 14.1279C14.2125 14.5539 14.6401 14.728 14.999 15.0907C15.3567 15.4534 15.8582 16.2462 15.4437 16.8971ZM11.9986 0H11.9954H11.9922C7.23149 0 3.13019 2.7812 1.19038 6.8C0.430136 8.3748 8.94955e-08 10.1344 8.94955e-08 12C-0.000800164 18.6264 5.3653 24 11.9938 24H11.997H12.0002C18.6263 24 24.0008 18.6264 24 12.0016C24.0008 5.314 18.5467 0 11.9986 0Z" fill="white"/>
</svg>
